Results
version=1
nRows=17
nColumns=17
inDegrees=yes
endheader
time	/jointset/r_shoulder/r_shoulder_elev/value	/jointset/r_shoulder/r_shoulder_elev/speed	/jointset/r_elbow/r_elbow_flex/value	/jointset/r_elbow/r_elbow_flex/speed	/forceset/TRIlong/activation	/forceset/TRIlong/fiber_length	/forceset/TRIlat/activation	/forceset/TRIlat/fiber_length	/forceset/TRImed/activation	/forceset/TRImed/fiber_length	/forceset/BIClong/activation	/forceset/BIClong/fiber_length	/forceset/BICshort/activation	/forceset/BICshort/fiber_length	/forceset/BRA/activation	/forceset/BRA/fiber_length
      0.20217068	     -3.43082825	     16.70034445	     40.17104033	   -337.44203526	     -0.00058737	      0.15050154	     -0.00058737	      0.08679868	     -0.00058737	      0.08175072	     -0.00058737	      0.13625547	     -0.00058737	      0.13433692	     -0.00058737	      0.08400504
      0.20272429	     -3.42149432	     17.01886998	     39.98398982	   -338.29550862	     -0.00065865	      0.15043531	     -0.00065865	      0.08672405	     -0.00065865	      0.08167627	     -0.00065865	      0.13631827	     -0.00065865	      0.13443490	     -0.00065865	      0.08404602
      0.20327791	     -3.41198510	     17.33301157	     39.79647140	   -339.13043139	     -0.00072993	      0.15036895	     -0.00072993	      0.08664918	     -0.00072993	      0.08160158	     -0.00072993	      0.13644172	     -0.00072993	      0.13453280	     -0.00072993	      0.08408713
      0.20383153	     -3.40230166	     17.64872181	     39.60849024	   -339.96875425	     -0.00080121	      0.15030248	     -0.00080121	      0.08657408	     -0.00080121	      0.08152666	     -0.00080121	      0.13650263	     -0.00080121	      0.13463062	     -0.00080121	      0.08412836
      0.20438314	     -3.39248060	     17.95873104	     39.42073325	   -340.78500848	     -0.00087223	      0.15023614	     -0.00087223	      0.08649902	     -0.00087223	      0.08145178	     -0.00087223	      0.13662395	     -0.00087223	      0.13472800	     -0.00087223	      0.08416958
      0.20493475	     -3.38248829	     18.27010240	     39.23252570	   -341.60404594	     -0.00094325	      0.15016967	     -0.00094325	      0.08642373	     -0.00094325	      0.08137667	     -0.00094325	      0.13668553	     -0.00094325	      0.13482529	     -0.00094325	      0.08421091
      0.20548636	     -3.37232535	     18.57686955	     39.04387106	   -342.40402681	     -0.00101427	      0.15010309	     -0.00101427	      0.08634821	     -0.00101427	      0.08130133	     -0.00101427	      0.13680935	     -0.00101427	      0.13492248	     -0.00101427	      0.08425238
      0.20603797	     -3.36199286	     18.88519389	     38.85477454	   -343.20762986	     -0.00108529	      0.15003640	     -0.00108529	      0.08627246	     -0.00108529	      0.08122577	     -0.00108529	      0.13686839	     -0.00108529	      0.13501957	     -0.00108529	      0.08429396
      0.20659019	     -3.35147997	     19.18901696	     38.66503239	   -343.99233442	     -0.00115639	      0.14996953	     -0.00115639	      0.08619641	     -0.00115639	      0.08114991	     -0.00115639	      0.13698939	     -0.00115639	      0.13511665	     -0.00115639	      0.08433572
      0.20714240	     -3.34079908	     19.49408537	     38.47485667	   -344.77963880	     -0.00122748	      0.14990254	     -0.00122748	      0.08612013	     -0.00122748	      0.08107382	     -0.00122748	      0.13705023	     -0.00122748	      0.13521363	     -0.00122748	      0.08437760
      0.20769462	     -3.32995091	     19.79428074	     38.28425101	   -345.54718085	     -0.00129858	      0.14983545	     -0.00129858	      0.08604364	     -0.00129858	      0.08099752	     -0.00129858	      0.13717644	     -0.00129858	      0.13531049	     -0.00129858	      0.08441960
      0.20824683	     -3.31893657	     20.09619614	     38.09322059	   -346.31918486	     -0.00136968	      0.14976824	     -0.00136968	      0.08596692	     -0.00136968	      0.08092100	     -0.00136968	      0.13723262	     -0.00136968	      0.13540724	     -0.00136968	      0.08446172
      0.20881233	     -3.30748591	     20.39998387	     37.89715802	   -347.08817835	     -0.00144249	      0.14969931	     -0.00144249	      0.08588814	     -0.00144249	      0.08084241	     -0.00144249	      0.13735537	     -0.00144249	      0.13550618	     -0.00144249	      0.08450498
      0.20937783	     -3.29586327	     20.70489013	     37.70066044	   -347.85947654	     -0.00151530	      0.14963027	     -0.00151530	      0.08580913	     -0.00151530	      0.08076361	     -0.00151530	      0.13741685	     -0.00151530	      0.13560499	     -0.00151530	      0.08454837
      0.20994333	     -3.28406949	     21.00427792	     37.50373185	   -348.60885643	     -0.00158810	      0.14956112	     -0.00158810	      0.08572990	     -0.00158810	      0.08068458	     -0.00158810	      0.13755691	     -0.00158810	      0.13570365	     -0.00158810	      0.08459188
      0.21050883	     -3.27210557	     21.30670373	     37.30637690	   -349.36768944	     -0.00166091	      0.14949186	     -0.00166091	      0.08565045	     -0.00166091	      0.08060533	     -0.00166091	      0.13760495	     -0.00166091	      0.13580217	     -0.00166091	      0.08463552
      0.21130443	     -3.25498815	     21.72289193	     37.02801012	   -350.39863433	     -0.00176335	      0.14939424	     -0.00176335	      0.08553831	     -0.00176335	      0.08049348	     -0.00176335	      0.13773842	     -0.00176335	      0.13594066	     -0.00176335	      0.08469710
